<svg id="svg" fill="#ca7e58" stroke="#ca7e58" width="200" height="200" version="1.1" viewBox="144 144 512 512" xmlns="http://www.w3.org/2000/svg">
    <g id="IconSvg_bgCarrier" stroke-width="0"></g>
    <g id="IconSvg_tracerCarrier" stroke-linecap="round" stroke-linejoin="round" stroke="#CCCCCC" stroke-width="0">
      <defs xmlns="http://www.w3.org/2000/svg">
  <clipPath id="b">
   <path d="m187 276h427v375.9h-427z"></path>
  </clipPath>
  <clipPath id="a">
   <path d="m148.09 148.09h503.81v89.906h-503.81z"></path>
  </clipPath>
 </defs>
<g xmlns="http://www.w3.org/2000/svg">
  <g clip-path="url(#b)">
   <path d="m187.32 276.39 40.652 375.51 344.91-0.0625 40.648-375.54zm230.68 57.93v260.26h-38.93l0.003907-260.26zm-130.89 0h34.887v260.26h-34.887zm188.01 260.26v-260.26h38.637v260.26z"></path>
  </g>
  <g clip-path="url(#a)">
   <path d="m452.73 180.42v-32.32h-115.89v32.32h-188.73v57.254h503.79v-57.254z"></path>
  </g>
 </g>

      </g>
     <g id="IconSvg_iconCarrier">
      <defs xmlns="http://www.w3.org/2000/svg">
  <clipPath id="b">
   <path d="m187 276h427v375.9h-427z"></path>
  </clipPath>
  <clipPath id="a">
   <path d="m148.09 148.09h503.81v89.906h-503.81z"></path>
  </clipPath>
 </defs>
<g xmlns="http://www.w3.org/2000/svg">
  <g clip-path="url(#b)">
   <path d="m187.32 276.39 40.652 375.51 344.91-0.0625 40.648-375.54zm230.68 57.93v260.26h-38.93l0.003907-260.26zm-130.89 0h34.887v260.26h-34.887zm188.01 260.26v-260.26h38.637v260.26z"></path>
  </g>
  <g clip-path="url(#a)">
   <path d="m452.73 180.42v-32.32h-115.89v32.32h-188.73v57.254h503.79v-57.254z"></path>
  </g>
 </g>

      </g>
      </svg>