<svg id="svg" fill="#ca7e58" stroke="#ca7e58" width="200" height="200" version="1.1" viewBox="144 144 512 512" xmlns="http://www.w3.org/2000/svg">
    <g id="IconSvg_bgCarrier" stroke-width="0"></g>
    <g id="IconSvg_tracerCarrier" stroke-linecap="round" stroke-linejoin="round" stroke="#CCCCCC" stroke-width="0">
      <g xmlns="http://www.w3.org/2000/svg">
  <path d="m362.06 339.32c-5.5586 0.29688-9.8203 5.043-9.5234 10.602l8.2656 153.71c0.28906 5.3711 4.7344 9.5391 10.051 9.5391 0.1875 0 0.36719-0.003906 0.55078-0.015625 5.5586-0.29688 9.8203-5.043 9.5234-10.602l-8.2656-153.71c-0.29297-5.5625-5.1367-9.8008-10.602-9.5234z"></path>
  <path d="m437.93 339.32c-5.5117-0.29297-10.309 3.9609-10.602 9.5234l-8.2656 153.71c-0.30078 5.5586 3.9648 10.305 9.5234 10.602 0.1875 0.011719 0.36719 0.015625 0.55078 0.015625 5.3164 0 9.7656-4.1602 10.051-9.5391l8.2656-153.71c0.29688-5.5547-3.9648-10.305-9.5234-10.602z"></path>
  <path d="m527.21 296.9h-68.105v-10.465c0-17.613-14.328-31.941-31.941-31.941l-54.332 0.003906c-17.613 0-31.941 14.328-31.941 31.941v10.465h-47.566l-20.539-0.003906c-5.5625 0-10.078 4.5156-10.078 10.078s4.5156 10.078 10.078 10.078h11.812l28.441 196.89c3.4297 23.734 24.098 41.637 48.078 41.637h77.758c23.98 0 44.652-17.898 48.078-41.637l28.441-196.89h11.812c5.5625 0 10.078-4.5156 10.078-10.078s-4.5117-10.078-10.074-10.078zm-166.17-10.469c0-6.5 5.2891-11.789 11.789-11.789h54.332c6.5 0 11.789 5.2891 11.789 11.789v10.465h-77.91zm105.97 224.62c-2.0039 13.891-14.102 24.363-28.133 24.363h-77.758c-14.035 0-26.133-10.473-28.133-24.363l-28.027-194.01h190.08z"></path>
  <path d="m400 173.29c-125.01 0-226.71 101.7-226.71 226.71s101.7 226.71 226.71 226.71 226.71-101.7 226.71-226.71c-0.003906-125.01-101.71-226.71-226.71-226.71zm0 433.27c-113.9 0-206.56-92.664-206.56-206.56 0-113.9 92.664-206.56 206.56-206.56 113.89 0 206.56 92.664 206.56 206.56-0.003906 113.89-92.668 206.56-206.56 206.56z"></path>
 </g>

      </g>
     <g id="IconSvg_iconCarrier">
      <g xmlns="http://www.w3.org/2000/svg">
  <path d="m362.06 339.32c-5.5586 0.29688-9.8203 5.043-9.5234 10.602l8.2656 153.71c0.28906 5.3711 4.7344 9.5391 10.051 9.5391 0.1875 0 0.36719-0.003906 0.55078-0.015625 5.5586-0.29688 9.8203-5.043 9.5234-10.602l-8.2656-153.71c-0.29297-5.5625-5.1367-9.8008-10.602-9.5234z"></path>
  <path d="m437.93 339.32c-5.5117-0.29297-10.309 3.9609-10.602 9.5234l-8.2656 153.71c-0.30078 5.5586 3.9648 10.305 9.5234 10.602 0.1875 0.011719 0.36719 0.015625 0.55078 0.015625 5.3164 0 9.7656-4.1602 10.051-9.5391l8.2656-153.71c0.29688-5.5547-3.9648-10.305-9.5234-10.602z"></path>
  <path d="m527.21 296.9h-68.105v-10.465c0-17.613-14.328-31.941-31.941-31.941l-54.332 0.003906c-17.613 0-31.941 14.328-31.941 31.941v10.465h-47.566l-20.539-0.003906c-5.5625 0-10.078 4.5156-10.078 10.078s4.5156 10.078 10.078 10.078h11.812l28.441 196.89c3.4297 23.734 24.098 41.637 48.078 41.637h77.758c23.98 0 44.652-17.898 48.078-41.637l28.441-196.89h11.812c5.5625 0 10.078-4.5156 10.078-10.078s-4.5117-10.078-10.074-10.078zm-166.17-10.469c0-6.5 5.2891-11.789 11.789-11.789h54.332c6.5 0 11.789 5.2891 11.789 11.789v10.465h-77.91zm105.97 224.62c-2.0039 13.891-14.102 24.363-28.133 24.363h-77.758c-14.035 0-26.133-10.473-28.133-24.363l-28.027-194.01h190.08z"></path>
  <path d="m400 173.29c-125.01 0-226.71 101.7-226.71 226.71s101.7 226.71 226.71 226.71 226.71-101.7 226.71-226.71c-0.003906-125.01-101.71-226.71-226.71-226.71zm0 433.27c-113.9 0-206.56-92.664-206.56-206.56 0-113.9 92.664-206.56 206.56-206.56 113.89 0 206.56 92.664 206.56 206.56-0.003906 113.89-92.668 206.56-206.56 206.56z"></path>
 </g>

      </g>
      </svg>